<svg xmlns="http://www.w3.org/2000/svg" xmlns:xlink="http://www.w3.org/1999/xlink" xmlns:fi="http://pattern.flaticon.com/" x="0" y="0" width="700" height="350" viewBox="0 0 700 350">
    <rect x="0px" y="0px" width="100%" height="100%" opacity="0" fill="#ffffff" />
    <defs>
        <path d="M424.58,362c6.192,17.458,22.865,30,42.42,30c24.813,0,45-20.187,45-45s-20.187-45-45-45    c-19.555,0-36.228,12.542-42.42,30H300v-30h116.271l15.177-30.355C433.269,271.87,435.119,272,437,272c24.813,0,45-20.187,45-45    s-20.187-45-45-45s-45,20.187-45,45c0,12.11,4.817,23.11,12.626,31.208L397.729,272H300v-60h-30v-92C270,53.832,216.168,0,150,0    S30,53.832,30,120v92H0v270h300v-60h97.729l6.896,13.792C396.817,443.89,392,454.89,392,467c0,24.813,20.187,45,45,45    s45-20.187,45-45s-20.187-45-45-45c-1.881,0-3.731,0.13-5.552,0.355L416.271,392H300v-30H424.58z M467,332c8.271,0,15,6.729,15,15    s-6.729,15-15,15s-15-6.729-15-15S458.729,332,467,332z M437,212c8.271,0,15,6.729,15,15s-6.729,15-15,15s-15-6.729-15-15    S428.729,212,437,212z M60,120c0-49.626,40.374-90,90-90c49.626,0,90,40.374,90,90v92h-30v-92c0-33.084-26.916-60-60-60    s-60,26.916-60,60v92H60V120z M180,120v92h-60v-92c0-16.542,13.458-30,30-30S180,103.458,180,120z M270,332h-30v-30h-15    c-8.271,0-15-6.729-15-15v-15H90v15c0,8.271-6.729,15-15,15H60v90h15c8.271,0,15,6.729,15,15v15h120v-15c0-8.271,6.729-15,15-15    h15v-30h30c0,9.503,0,80.659,0,90H30V242h240C270,251.503,270,322.659,270,332z M210.001,329.43V332v30H210v2.57    c-12.768,4.527-22.903,14.662-27.43,27.43h-65.14c-4.527-12.768-14.662-22.903-27.43-27.43v-35.14    c12.768-4.527,22.903-14.662,27.43-27.43h65.141C187.098,314.768,197.233,324.903,210.001,329.43z M437,452    c8.271,0,15,6.729,15,15s-6.729,15-15,15s-15-6.729-15-15S428.729,452,437,452z" transform="matrix(0.09765625 0 0 0.09765625 150 325)" id="L1_247" />
        <g transform="matrix(0.09765625 0 0 0.09765625 62.5 150)" id="L1_248">
            <path d="m296.410156 291.140625c0-31.363281-25.511718-56.875-56.871094-56.875-31.363281 0-56.875 25.511719-56.875 56.875 0 31.359375 25.511719 56.871094 56.875 56.871094 31.359376 0 56.871094-25.511719 56.871094-56.871094zm-92.472656 9.273437h6.40625c5.546875 0 10.042969-4.496093 10.042969-10.042968s-4.496094-10.042969-10.042969-10.042969h-5.96875c3.652344-11.859375 13.152344-21.171875 25.121094-24.570313v5.6875c0 5.546876 4.496094 10.042969 10.042968 10.042969 5.546876 0 10.042969-4.496093 10.042969-10.042969v-5.6875c11.964844 3.402344 21.46875 12.710938 25.121094 24.570313h-6.507813c-5.546874 0-10.042968 4.496094-10.042968 10.042969s4.496094 10.042968 10.042968 10.042968h6.945313c-3.28125 12.585938-13.082031 22.5625-25.558594 26.109376v-5.6875c0-5.546876-4.496093-10.042969-10.042969-10.042969-5.546874 0-10.042968 4.496093-10.042968 10.042969v5.6875c-12.480469-3.550782-22.277344-13.523438-25.558594-26.109376zm0 0" />
            <path d="m332.34375 201.085938h-14.4375c-4.484375-43.449219-37.695312-77.304688-77.871094-77.304688-40.175781 0-73.382812 33.855469-77.867187 77.304688h-15.976563c-5.546875 0-10.042968 4.496093-10.042968 10.042968v158.960938c0 5.546875 4.496093 10.042968 10.042968 10.042968h51.328125c5.546875 0 10.042969-4.496093 10.042969-10.042968s-4.496094-10.042969-10.042969-10.042969h-41.285156v-138.875h166.066406v138.875h-45.269531c-5.546875 0-10.042969 4.496094-10.042969 10.042969s4.496094 10.042968 10.042969 10.042968h55.3125c5.546875 0 10.042969-4.496093 10.042969-10.042968v-158.960938c0-5.546875-4.496094-10.042968-10.042969-10.042968zm-118.78125 0c3.390625-15.109376 14.136719-26.5 26.472656-26.5 12.335938 0 23.082032 11.390624 26.472656 26.5zm73.378906 0c-4.003906-26.449219-23.503906-46.585938-46.90625-46.585938-23.398437 0-42.902344 20.136719-46.90625 46.585938h-10.742187c4.214843-32.339844 28.460937-57.21875 57.648437-57.21875 29.191406 0 53.4375 24.878906 57.652344 57.21875zm0 0" />
            <path d="m336.136719 174.585938h42.746093c5.546876 0 10.042969-4.5 10.042969-10.046876v-33.152343c0-.289063-.019531-.574219-.042969-.859375 12.273438-4.175782 21.132813-15.808594 21.132813-29.476563 0-17.164062-13.964844-31.132812-31.132813-31.132812-17.167968 0-31.132812 13.96875-31.132812 31.132812 0 13.671875 8.855469 25.300781 21.132812 29.476563-.023437.285156-.042968.570312-.042968.859375v23.109375h-32.703125c-5.546875 0-10.042969 4.496094-10.042969 10.042968 0 5.546876 4.496094 10.046876 10.042969 10.046876zm31.699219-73.535157c0-6.089843 4.957031-11.046875 11.046874-11.046875 6.089844 0 11.046876 4.957032 11.046876 11.046875 0 6.09375-4.957032 11.046875-11.046876 11.046875-6.089843 0-11.046874-4.953125-11.046874-11.046875zm0 0" />
            <path d="m108.429688 355.414062h-42.746094c-5.546875 0-10.042969 4.496094-10.042969 10.042969v33.152344c0 .292969.019531.578125.042969.859375-12.277344 4.175781-21.136719 15.808594-21.136719 29.476562 0 17.167969 13.96875 31.136719 31.136719 31.136719 17.164062 0 31.132812-13.96875 31.132812-31.136719 0-13.667968-8.859375-25.300781-21.132812-29.476562.023437-.28125.042968-.570312.042968-.859375v-23.109375h32.703126c5.546874 0 10.042968-4.496094 10.042968-10.042969s-4.496094-10.042969-10.042968-10.042969zm-31.699219 73.535157c0 6.089843-4.957031 11.046875-11.046875 11.046875-6.09375 0-11.046875-4.957032-11.046875-11.046875 0-6.09375 4.953125-11.050781 11.046875-11.050781 6.089844 0 11.046875 4.957031 11.046875 11.050781zm0 0" />
            <path d="m421.285156 399.46875c.027344-.28125.042969-.570312.042969-.859375v-33.152344c0-5.546875-4.496094-10.042969-10.042969-10.042969h-42.746094c-5.546874 0-10.042968 4.496094-10.042968 10.042969s4.496094 10.042969 10.042968 10.042969h32.703126v23.109375c0 .292969.019531.578125.042968.859375-12.273437 4.175781-21.132812 15.808594-21.132812 29.476562 0 17.167969 13.96875 31.136719 31.132812 31.136719 17.167969 0 31.136719-13.96875 31.136719-31.136719 0-13.667968-8.859375-25.300781-21.136719-29.476562zm-9.996094 40.527344c-6.09375 0-11.050781-4.957032-11.050781-11.046875 0-6.09375 4.957031-11.050781 11.050781-11.050781 6.089844 0 11.046876 4.957031 11.046876 11.050781 0 6.089843-4.957032 11.046875-11.046876 11.046875zm0 0" />
            <path d="m92.179688 140.167969v24.375c0 5.546875 4.496093 10.042969 10.042968 10.042969h42.75c5.546875 0 10.042969-4.496094 10.042969-10.042969s-4.496094-10.042969-10.042969-10.042969h-32.707031v-14.332031c17.421875-4.476563 30.339844-20.316407 30.339844-39.117188 0-22.265625-18.117188-40.378906-40.382813-40.378906s-40.378906 18.113281-40.378906 40.378906c0 18.800781 12.914062 34.640625 30.335938 39.117188zm10.042968-59.410157c11.191406 0 20.292969 9.105469 20.292969 20.292969 0 11.191407-9.101563 20.292969-20.292969 20.292969-11.1875 0-20.292968-9.101562-20.292968-20.292969 0-11.1875 9.105468-20.292969 20.292968-20.292969zm0 0" />
            <path d="m181.617188 79.492188v33.074218c0 5.546875 4.496093 10.042969 10.042968 10.042969s10.042969-4.496094 10.042969-10.042969v-33.074218c17.421875-4.472657 30.335937-20.3125 30.335937-39.113282 0-22.265625-18.117187-40.378906-40.378906-40.378906-22.265625 0-40.382812 18.113281-40.382812 40.378906 0 18.800782 12.914062 34.640625 30.339844 39.113282zm10.042968-59.40625c11.1875 0 20.292969 9.105468 20.292969 20.292968 0 11.191406-9.105469 20.292969-20.292969 20.292969-11.191406 0-20.292968-9.101563-20.292968-20.292969 0-11.1875 9.101562-20.292968 20.292968-20.292968zm0 0" />
            <path d="m278.414062 69.855469c-.023437.285156-.042968.570312-.042968.859375v41.851562c0 5.546875 4.496094 10.042969 10.042968 10.042969 5.546876 0 10.042969-4.496094 10.042969-10.042969v-41.851562c0-.289063-.019531-.574219-.042969-.859375 12.273438-4.175781 21.132813-15.808594 21.132813-29.476563 0-17.167968-13.964844-31.132812-31.132813-31.132812-17.167968 0-31.132812 13.964844-31.132812 31.132812 0 13.667969 8.859375 25.300782 21.132812 29.476563zm10-40.523438c6.089844 0 11.046876 4.957031 11.046876 11.046875 0 6.09375-4.957032 11.046875-11.046876 11.046875-6.089843 0-11.046874-4.953125-11.046874-11.046875 0-6.089844 4.953124-11.046875 11.046874-11.046875zm0 0" />
            <path d="m437.355469 222.757812c-18.800781 0-34.640625 12.914063-39.117188 30.335938h-33.070312c-5.546875 0-10.042969 4.496094-10.042969 10.042969s4.496094 10.042969 10.042969 10.042969h33.070312c4.476563 17.421874 20.316407 30.335937 39.117188 30.335937 22.261719 0 40.378906-18.113281 40.378906-40.378906s-18.117187-40.378907-40.378906-40.378907zm0 60.671876c-11.191407 0-20.296875-9.101563-20.296875-20.292969 0-11.191407 9.105468-20.292969 20.296875-20.292969 11.1875 0 20.289062 9.101562 20.289062 20.292969 0 11.191406-9.101562 20.292969-20.289062 20.292969zm0 0" />
            <path d="m112.566406 253.09375h-33.074218c-4.476563-17.421875-20.316407-30.335938-39.113282-30.335938-22.265625 0-40.378906 18.113282-40.378906 40.378907s18.113281 40.378906 40.378906 40.378906c18.796875 0 34.636719-12.914063 39.113282-30.335937h33.074218c5.546875 0 10.042969-4.496094 10.042969-10.042969s-4.496094-10.042969-10.042969-10.042969zm-72.1875 30.335938c-11.1875 0-20.292968-9.101563-20.292968-20.292969 0-11.191407 9.105468-20.292969 20.292968-20.292969 11.191406 0 20.292969 9.101562 20.292969 20.292969 0 11.191406-9.101563 20.292969-20.292969 20.292969zm0 0" />
            <path d="m298.457031 432.507812v-33.074218c0-5.546875-4.496093-10.042969-10.042969-10.042969-5.546874 0-10.042968 4.496094-10.042968 10.042969v33.074218c-17.421875 4.472657-30.335938 20.3125-30.335938 39.113282 0 22.265625 18.113282 40.378906 40.378906 40.378906 22.265626 0 40.378907-18.113281 40.378907-40.378906 0-18.800782-12.914063-34.640625-30.335938-39.113282zm-10.042969 59.40625c-11.191406 0-20.292968-9.105468-20.292968-20.292968 0-11.191406 9.101562-20.292969 20.292968-20.292969 11.191407 0 20.292969 9.101563 20.292969 20.292969 0 11.1875-9.101562 20.292968-20.292969 20.292968zm0 0" />
            <path d="m201.65625 442.144531c.027344-.285156.042969-.570312.042969-.859375v-41.851562c0-5.546875-4.496094-10.042969-10.042969-10.042969s-10.042969 4.496094-10.042969 10.042969v41.851562c0 .289063.019531.574219.042969.859375-12.273438 4.175781-21.132812 15.808594-21.132812 29.476563 0 17.167968 13.96875 31.132812 31.132812 31.132812 17.167969 0 31.136719-13.964844 31.136719-31.132812 0-13.667969-8.859375-25.300782-21.136719-29.476563zm-9.996094 40.523438c-6.09375 0-11.050781-4.957031-11.050781-11.046875 0-6.09375 4.957031-11.046875 11.050781-11.046875 6.089844 0 11.046875 4.953125 11.046875 11.046875 0 6.089844-4.957031 11.046875-11.046875 11.046875zm0 0" />
            <path d="m246.613281 366.1875c-2.082031-5.140625-7.9375-7.617188-13.078125-5.535156-5.140625 2.082031-7.617187 7.9375-5.535156 13.078125l.105469.261719c1.582031 3.90625 5.339843 6.273437 9.308593 6.273437 1.257813 0 2.535157-.234375 3.769532-.734375 5.140625-2.085938 7.617187-7.941406 5.535156-13.082031zm0 0" />
        </g>
        <g transform="matrix(0.09765625 0 0 0.09765625 237.5 150)" id="L1_249">
            <path d="M245.333,330.667V352H160c-0.295-0.006-0.589-0.006-0.884,0c-11.538,0.244-20.693,9.795-20.449,21.333V416H160v-42.667    h85.333c0.295,0.006,0.589,0.006,0.884,0c11.538-0.244,20.693-9.795,20.449-21.333v-21.333H245.333z" />
            <path d="M352,352h-64v21.333h64V416h21.333v-42.667c0.006-0.295,0.006-0.589,0-0.884C373.089,360.911,363.538,351.756,352,352z" />
            <path d="M149.333,405.333c-17.673,0-32,14.327-32,32s14.327,32,32,32c17.673,0,32-14.327,32-32S167.006,405.333,149.333,405.333z     M149.333,448c-5.891,0-10.667-4.776-10.667-10.667c0-5.891,4.776-10.667,10.667-10.667c5.891,0,10.667,4.776,10.667,10.667    C160,443.224,155.224,448,149.333,448z" />
            <path d="M256,405.333c-17.673,0-32,14.327-32,32s14.327,32,32,32s32-14.327,32-32S273.673,405.333,256,405.333z M256,448    c-5.891,0-10.667-4.776-10.667-10.667c0-5.891,4.776-10.667,10.667-10.667s10.667,4.776,10.667,10.667    C266.667,443.224,261.891,448,256,448z" />
            <path d="M362.667,405.333c-17.673,0-32,14.327-32,32s14.327,32,32,32s32-14.327,32-32S380.34,405.333,362.667,405.333z     M362.667,448c-5.891,0-10.667-4.776-10.667-10.667c0-5.891,4.776-10.667,10.667-10.667s10.667,4.776,10.667,10.667    C373.333,443.224,368.558,448,362.667,448z" />
            <rect x="245px" y="384px" width="21px" height="32px" />
            <path d="M458.667,128H416v21.333h32v32h21.333v-42.667C469.333,132.776,464.558,128,458.667,128z" />
            <path d="M458.667,0H53.333C23.893,0.035,0.035,23.893,0,53.333v405.333C0.035,488.107,23.893,511.965,53.333,512h405.333    c29.441-0.035,53.298-23.893,53.333-53.333V53.333C511.965,23.893,488.107,0.035,458.667,0z M490.667,458.667    c0,17.673-14.327,32-32,32H53.333c-17.673,0-32-14.327-32-32V53.333c0-17.673,14.327-32,32-32h405.333c17.673,0,32,14.327,32,32    V458.667z" />
            <rect x="42px" y="85px" width="426px" height="21px" />
            <rect x="53px" y="42px" width="21px" height="21px" />
            <rect x="96px" y="42px" width="21px" height="21px" />
            <rect x="437px" y="42px" width="21px" height="21px" />
            <path d="M341.333,202.667H170.667c-5.891,0-10.667,4.776-10.667,10.667v117.333h21.333V224h149.333v106.667H352V213.333    C352,207.442,347.224,202.667,341.333,202.667z" />
            <path d="M298.667,128h-85.333c-11.673,0.26-21.074,9.661-21.333,21.333v64h21.333v-63.147c0.096-0.384,0.192-0.779,0.096-0.853    h84.576c0.212,0.075,0.438,0.101,0.661,0.075v63.925H320v-64C319.901,137.592,310.408,128.099,298.667,128z" />
            <rect x="138px" y="245px" width="234px" height="21px" />
            <rect x="245px" y="288px" width="21px" height="21px" />
            <path d="M53.333,128c-5.891,0-10.667,4.776-10.667,10.667v42.667H64v-32h32V128H53.333z" />
        </g>
        <g transform="matrix(0.15086206793785095 0 0 0.15086206793785095 315 315)" id="L1_250">
            <path d="m48.40625 112h-16.40625v256h400v-256h-144.40625c-4.144531 62.441406-56.128906 112-119.59375 112s-115.449219-49.558594-119.59375-112zm63.59375 128h16v16h-16zm-32 0h16v16h-16zm80 112h-112v-16h112zm0-32h-112v-16h112zm0-32h-112v-16h112zm0-32h-16v-16h16zm240-112h16v16h-16zm-32 0h16v16h-16zm-32 0h16v16h-16zm-32 32h112v16h-112zm0 32h112v16h-112zm0 32h112v16h-112zm0 32h112v16h-112zm0 32h112v16h-112zm0 32h112v16h-112zm-32-96h16v16h-16zm-32 0h16v16h-16zm-32 0h16v16h-16zm-32 32h112v16h-112zm0 32h112v16h-112zm0 32h112v16h-112zm0 0" />
            <path d="m16 112c0-8.824219 7.175781-16 16-16h16.40625c.363281-5.425781.953125-10.792969 2.019531-16h-26.425781c-13.230469 0-24 10.769531-24 24v264h16zm0 0" />
            <path d="m440 80h-154.414062c1.0625 5.207031 1.652343 10.574219 2.015624 16h144.398438c8.824219 0 16 7.175781 16 16v256h16v-264c0-13.230469-10.769531-24-24-24zm0 0" />
            <path d="m168 208c57.34375 0 104-46.65625 104-104s-46.65625-104-104-104-104 46.65625-104 104 46.65625 104 104 104zm0-192c48.519531 0 88 39.480469 88 88 0 20.246094-7.054688 40.023438-19.871094 55.6875l-12.386718-10.136719c10.480468-12.808593 16.257812-28.992187 16.257812-45.550781 0-39.695312-32.304688-72-72-72-16.558594 0-32.742188 5.777344-45.550781 16.257812l-10.136719-12.386718c15.664062-12.816406 35.441406-19.871094 55.6875-19.871094zm-8 112v-80h16v80zm16 16v16h-16v-16zm-76.128906-95.6875 12.386718 10.136719c-10.480468 12.808593-16.257812 28.992187-16.257812 45.550781 0 39.695312 32.304688 72 72 72 16.558594 0 32.742188-5.777344 45.550781-16.257812l10.136719 12.386718c-15.664062 12.816406-35.441406 19.871094-55.6875 19.871094-48.519531 0-88-39.480469-88-88 0-20.246094 7.054688-40.023438 19.871094-55.6875zm0 0" />
            <path d="m0 392c0 13.230469 10.769531 24 24 24h416c13.230469 0 24-10.769531 24-24v-8h-464zm0 0" />
            <path d="m328 432h-192v16h-32v16h256v-16h-32zm0 0" />
        </g>
    </defs>
    <g fi:class="KUsePattern">
        <pattern id="pattern_L1_247" width="350" height="350" patternUnits="userSpaceOnUse">
            <use xlink:href="#L1_247" x="-350" y="-350" />
            <use xlink:href="#L1_247" x="0" y="-350" />
            <use xlink:href="#L1_247" x="350" y="-350" />
            <use xlink:href="#L1_247" x="-350" y="0" />
            <use xlink:href="#L1_247" x="0" y="0" />
            <use xlink:href="#L1_247" x="350" y="0" />
            <use xlink:href="#L1_247" x="-350" y="350" />
            <use xlink:href="#L1_247" x="0" y="350" />
            <use xlink:href="#L1_247" x="350" y="350" />
        </pattern>
        <rect x="0" y="0" width="100%" height="100%" fill="url(#pattern_L1_247)" />
    </g>
    <g fi:class="KUsePattern">
        <pattern id="pattern_L1_248" width="350" height="350" patternUnits="userSpaceOnUse">
            <use xlink:href="#L1_248" x="-350" y="-350" />
            <use xlink:href="#L1_248" x="0" y="-350" />
            <use xlink:href="#L1_248" x="350" y="-350" />
            <use xlink:href="#L1_248" x="-350" y="0" />
            <use xlink:href="#L1_248" x="0" y="0" />
            <use xlink:href="#L1_248" x="350" y="0" />
            <use xlink:href="#L1_248" x="-350" y="350" />
            <use xlink:href="#L1_248" x="0" y="350" />
            <use xlink:href="#L1_248" x="350" y="350" />
        </pattern>
        <rect x="0" y="0" width="100%" height="100%" fill="url(#pattern_L1_248)" />
    </g>
    <g fi:class="KUsePattern">
        <pattern id="pattern_L1_249" width="350" height="350" patternUnits="userSpaceOnUse">
            <use xlink:href="#L1_249" x="-350" y="-350" />
            <use xlink:href="#L1_249" x="0" y="-350" />
            <use xlink:href="#L1_249" x="350" y="-350" />
            <use xlink:href="#L1_249" x="-350" y="0" />
            <use xlink:href="#L1_249" x="0" y="0" />
            <use xlink:href="#L1_249" x="350" y="0" />
            <use xlink:href="#L1_249" x="-350" y="350" />
            <use xlink:href="#L1_249" x="0" y="350" />
            <use xlink:href="#L1_249" x="350" y="350" />
        </pattern>
        <rect x="0" y="0" width="100%" height="100%" fill="url(#pattern_L1_249)" />
    </g>
    <g fi:class="KUsePattern">
        <pattern id="pattern_L1_250" width="350" height="350" patternUnits="userSpaceOnUse">
            <use xlink:href="#L1_250" x="-350" y="-350" />
            <use xlink:href="#L1_250" x="0" y="-350" />
            <use xlink:href="#L1_250" x="350" y="-350" />
            <use xlink:href="#L1_250" x="-350" y="0" />
            <use xlink:href="#L1_250" x="0" y="0" />
            <use xlink:href="#L1_250" x="350" y="0" />
            <use xlink:href="#L1_250" x="-350" y="350" />
            <use xlink:href="#L1_250" x="0" y="350" />
            <use xlink:href="#L1_250" x="350" y="350" />
        </pattern>
        <rect x="0" y="0" width="100%" height="100%" fill="url(#pattern_L1_250)" />
    </g>
</svg>